<?xml version="1.0" standalone="no"?>
<!DOCTYPE svg PUBLIC "-//W3C//DTD SVG 20010904//EN"
 "http://www.w3.org/TR/2001/REC-SVG-20010904/DTD/svg10.dtd">
<svg version="1.0" xmlns="http://www.w3.org/2000/svg"
 width="225.000000pt" height="225.000000pt" viewBox="0 0 225.000000 225.000000"
 preserveAspectRatio="xMidYMid meet">

<g transform="translate(0.000000,225.000000) scale(0.100000,-0.100000)"
fill="#000000" stroke="none">
<path d="M1015 1760 c-87 -16 -208 -69 -275 -121 -35 -27 -59 -49 -54 -49 6 0
14 4 19 9 38 34 266 63 335 43 l35 -10 -50 -1 c-49 -2 -49 -2 -25 -16 14 -8
32 -14 41 -15 9 0 19 -7 23 -15 4 -11 21 -15 63 -15 130 0 266 -68 351 -177
72 -92 103 -216 83 -333 -16 -99 -54 -174 -126 -245 -93 -93 -228 -145 -342
-132 -39 4 -67 -2 -156 -35 -59 -22 -110 -38 -113 -36 -2 3 3 40 12 82 l17 77
-41 40 c-22 22 -53 61 -68 87 -15 26 -30 49 -33 52 -8 6 -31 117 -32 156 -1
27 -2 26 -11 -10 -8 -30 -8 -40 3 -47 12 -7 11 -11 -2 -25 -16 -15 -17 -14
-17 21 0 20 -3 39 -6 42 -3 4 -6 -3 -6 -15 0 -13 -6 -22 -15 -22 -8 0 -15 -6
-15 -12 0 -9 -4 -8 -10 2 -7 11 -10 4 -10 -25 0 -23 5 -46 10 -51 8 -8 6 -15
-5 -24 -12 -10 -15 -10 -15 0 0 10 -3 10 -14 1 -12 -10 -15 -6 -21 18 -4 17
-3 40 0 52 5 15 4 19 -4 15 -6 -4 -11 -20 -11 -36 0 -16 -4 -32 -10 -35 -5 -3
-10 -10 -10 -16 0 -17 20 -9 21 9 1 11 4 8 8 -8 9 -30 3 -52 -11 -44 -6 4 -4
-4 2 -17 16 -31 25 -39 17 -16 -4 11 -3 16 4 12 5 -4 7 -15 4 -24 -8 -27 62
-127 140 -200 143 -133 351 -195 540 -160 67 12 169 48 161 56 -8 8 65 62 84
63 12 0 12 2 2 9 -11 6 -7 18 16 55 24 37 32 43 41 33 6 -8 9 -17 6 -21 -3 -3
0 -2 7 4 9 7 7 15 -7 30 -16 17 -16 20 -2 26 9 3 13 12 10 20 -3 8 0 14 6 14
6 0 11 7 11 15 0 8 5 15 10 15 6 0 10 7 10 15 0 8 7 15 16 15 10 0 14 -6 10
-15 -3 -8 -1 -15 3 -15 5 0 17 -3 27 -7 13 -5 15 -3 9 8 -7 12 -6 12 7 1 15
-12 19 -8 38 28 12 23 22 55 22 71 1 15 4 26 8 24 11 -7 30 77 35 153 9 132
-32 283 -106 395 -39 60 -137 153 -201 194 -114 71 -308 107 -443 83z m135
-146 c0 -2 -12 -4 -26 -4 -14 0 -23 4 -20 9 6 8 46 4 46 -5z m25 -24 c16 -7
13 -9 -17 -9 -21 -1 -38 4 -38 9 0 12 27 12 55 0z m525 -733 c0 -5 -4 -5 -10
-2 -5 3 -10 14 -10 23 0 15 2 15 10 2 5 -8 10 -19 10 -23z m-1072 -72 c-3 -3
-9 2 -12 12 -6 14 -5 15 5 6 7 -7 10 -15 7 -18z"/>
<path d="M980 1596 c-29 -22 -22 -36 11 -24 22 8 34 7 42 -1 6 -6 15 -11 20
-11 11 0 -12 21 -39 36 -15 9 -24 9 -34 0z"/>
<path d="M695 1570 c-10 -11 -22 -17 -28 -13 -6 4 -7 1 -2 -6 5 -9 13 -7 31
10 13 12 24 24 24 26 0 7 -8 2 -25 -17z"/>
<path d="M860 1520 c-9 -6 -10 -10 -3 -10 6 0 15 5 18 10 8 12 4 12 -15 0z"/>
<path d="M835 1480 c-3 -6 1 -7 9 -4 18 7 21 14 7 14 -6 0 -13 -4 -16 -10z"/>
<path d="M803 1463 c4 -3 1 -13 -6 -22 -11 -14 -10 -14 5 -2 16 12 16 31 1 31
-4 0 -3 -3 0 -7z"/>
<path d="M767 1413 c-4 -3 -7 -11 -7 -17 0 -6 5 -5 12 2 6 6 9 14 7 17 -3 3
-9 2 -12 -2z"/>
<path d="M727 1387 c-3 -8 1 -14 8 -14 7 0 11 6 8 14 -3 7 -6 13 -8 13 -2 0
-5 -6 -8 -13z"/>
<path d="M1205 1380 c10 -11 20 -20 23 -20 3 0 -3 9 -13 20 -10 11 -20 20 -23
20 -3 0 3 -9 13 -20z"/>
<path d="M1023 1365 c-3 -9 -3 -18 -1 -21 3 -3 8 4 11 16 6 23 -1 27 -10 5z"/>
<path d="M1232 1310 c0 -14 2 -19 5 -12 2 6 2 18 0 25 -3 6 -5 1 -5 -13z"/>
<path d="M686 1275 c-9 -26 -7 -32 5 -12 6 10 9 21 6 23 -2 3 -7 -2 -11 -11z"/>
<path d="M651 1265 c1 -19 18 -51 18 -35 0 8 -4 22 -9 30 -5 8 -9 11 -9 5z"/>
<path d="M1226 1253 c-4 -4 -42 -6 -84 -5 -42 1 -89 0 -104 -4 l-27 -5 -3
-115 -3 -114 120 120 c65 65 117 122 114 125 -3 3 -9 2 -13 -2z"/>
<path d="M661 1174 c0 -11 3 -14 6 -6 3 7 2 16 -1 19 -3 4 -6 -2 -5 -13z"/>
<path d="M554 1075 c-3 -8 -4 -20 -1 -27 4 -8 6 -6 6 5 1 9 6 17 11 17 6 0 10
5 10 10 0 15 -20 12 -26 -5z"/>
<path d="M501 974 c0 -11 3 -14 6 -6 3 7 2 16 -1 19 -3 4 -6 -2 -5 -13z"/>
<path d="M1231 934 c0 -11 3 -14 6 -6 3 7 2 16 -1 19 -3 4 -6 -2 -5 -13z"/>
<path d="M1025 891 c-3 -5 -2 -12 3 -15 5 -3 9 1 9 9 0 17 -3 19 -12 6z"/>
<path d="M1586 802 c-3 -5 4 -16 15 -25 20 -18 27 -43 7 -31 -7 5 -8 3 -4 -5
5 -7 0 -21 -10 -32 -10 -11 -12 -19 -5 -19 6 0 16 11 23 25 6 13 15 22 21 18
6 -3 7 -1 3 5 -4 7 -3 12 3 12 6 0 16 10 22 23 6 12 8 19 4 15 -5 -4 -14 -3
-22 3 -7 6 -13 8 -13 5 0 -4 -9 -2 -19 4 -11 5 -22 6 -25 2z m58 -30 c3 -5 -1
-9 -9 -9 -8 0 -12 4 -9 9 3 4 7 8 9 8 2 0 6 -4 9 -8z"/>
<path d="M1534 644 c-18 -14 -18 -15 4 -4 12 6 22 13 22 15 0 8 -5 6 -26 -11z"/>
</g>
</svg>
